<?xml version="1.0" encoding="UTF-8"?>
<svg id="Layer_1" xmlns="http://www.w3.org/2000/svg" version="1.1" viewBox="0 0 439 405.98">
  <!-- Generator: Adobe Illustrator 29.8.2, SVG Export Plug-In . SVG Version: 2.1.1 Build 3)  -->
  <defs>
    <style>
      .st0 {
        fill: none;
      }

      .st1 {
        fill: #9d9fa2;
      }

      .st2 {
        fill: #0081c6;
      }

      .st3 {
        fill: #808285;
      }
    </style>
  </defs>
  <path class="st1" d="M86.37,164.75c2.36,14.99,8.62,29.09,18.15,40.9,9.51,11.67,21.45,21.11,35,27.66,14,6.81,29.1,11.03,44.6,12.47,16.09,1.53,32.32.49,48.09-3.08l1.3-.29,1.29-.31,1.28-.33,1.28-.31s.07,0,.11,0h.31l-.77-12.93h-.32l-1.12.26-1.13.26-1.14.25c-.37.09-.75.16-1.13.24-13.4,2.84-27.16,3.58-40.78,2.18-13-1.34-25.66-4.94-37.42-10.65-11.34-5.48-21.4-13.28-29.53-22.89-8.1-9.66-13.66-21.18-16.2-33.53l-9.17,9.65-12.7-9.55M225.46,29.92h-.37l.88,14.1h5.1c12.91-.08,25.74,1.95,38,6,10.64,3.52,20.59,8.85,29.42,15.74,8.01,6.25,14.79,13.93,20,22.65,5.04,8.5,8.36,17.91,9.75,27.69l5.49-6.84,7.47,8.3c-.99-11.54-4.29-22.77-9.71-33.01-5.59-10.41-13.11-19.67-22.16-27.27-10.02-8.39-21.43-14.95-33.73-19.38-14.33-5.15-29.42-7.86-44.64-8h-5.5"/>
  <path class="st0" d="M226.34,44.01h-.37l.23,3.86c-22.21.96-43.81,7.55-62.77,19.15-9.37,5.71-17.91,12.68-25.39,20.7-7.3,7.79-13.33,16.69-17.87,26.36l38.62-2.69-50.59,53.26c2.54,12.35,8.1,23.87,16.2,33.53,8.14,9.62,18.22,17.42,29.57,22.89,11.77,5.7,24.46,9.3,37.47,10.62,13.61,1.41,27.35.69,40.74-2.14.38-.08.76-.15,1.13-.24l1.14-.25,1.13-.26,1.12-.26h.32l-.21-3.57c10.12-2.5,19.9-6.18,29.16-10.97,8.59-4.39,16.65-9.76,24-16,6.85-5.8,12.97-12.4,18.24-19.66,4.99-6.85,9.05-14.32,12.07-22.24l-27.13,3.78,35.15-43.85c-1.39-9.78-4.71-19.19-9.75-27.69-5.21-8.72-11.99-16.4-20-22.65-8.83-6.89-18.78-12.22-29.42-15.74-12.26-4.05-25.09-6.08-38-6h-4.72"/>
  <path class="st2" d="M224.77,24.75c-30.11.53-59.5,9.29-85,25.32-12.73,7.96-24.19,17.79-34,29.16-9.57,11.05-17.09,23.72-22.2,37.42l36.56-2.56c4.54-9.67,10.57-18.57,17.87-26.36,7.48-8.02,16.02-14.99,25.39-20.7,18.96-11.6,40.56-18.19,62.77-19.15l-.19-3.86-.87-14.09-.32-5.18"/>
  <path class="st2" d="M320.26,156.12c-3.02,7.92-7.08,15.39-12.07,22.24-5.26,7.26-11.38,13.86-18.22,19.66-7.35,6.24-15.41,11.61-24,16-9.27,4.75-19.07,8.38-29.19,10.84l.21,3.57.77,12.93.28,4.68c13.25-3.51,26.02-8.65,38-15.3,10.91-6.04,21.05-13.37,30.2-21.85,8.46-7.81,15.89-16.66,22.13-26.34,5.9-9.13,10.48-19.04,13.6-29.45l-21.66,3"/>
  <polyline class="st2" points="27.75 120.55 86.38 164.75 99.04 174.3 108.21 164.65 158.78 111.4 120.17 114.09 83.6 116.65 27.75 120.55"/>
  <polyline class="st2" points="333.78 109.21 328.29 116.05 293.13 159.9 320.26 156.12 341.92 153.1 369.76 149.23 341.24 117.51 333.78 109.21"/>
  <path class="st3" d="M71.38,348.79h-8.29c-.31-1.89-.61-5.47-.92-10.75-3.69,8.26-9.97,12.38-18.82,12.38-6.03,0-10.65-1.77-13.88-5.32-3.23-3.55-4.84-7.81-4.84-12.78,0-6.03,2.3-10.99,6.91-14.88,4.61-3.88,12.44-5.83,23.51-5.83,1.49,0,3.87.08,7.13.24,0-4.73-.33-8.14-.99-10.23-.66-2.09-2.05-3.78-4.17-5.07-2.13-1.25-4.93-1.88-8.41-1.88-8.46,0-13.38,3.58-14.78,10.74l-7.67-1.49c1.87-10.94,9.76-16.41,23.67-16.41,7.4,0,12.65,1.82,15.76,5.46s4.65,9.95,4.65,18.92v25.33c-.03,3.89.35,7.77,1.14,11.57ZM62.17,318.92c-3.41-.24-6-.36-7.78-.36-6.6,0-11.73,1.21-15.39,3.62s-5.49,5.93-5.48,10.54c-.06,2.78,1.01,5.47,2.96,7.46,1.97,2.05,4.82,3.08,8.56,3.08,5.05,0,9.2-2.03,12.45-6.1s4.88-8.84,4.88-14.32c0-1.12-.07-2.42-.2-3.92Z"/>
  <path class="st3" d="M128.82,268.17v80.62h-7.57v-10.23c-3.76,7.91-9.41,11.87-16.95,11.87-6.27,0-11.43-2.92-15.46-8.77-4.03-5.85-6.05-13.24-6.05-22.18,0-9.14,2-16.75,6.01-22.83,4.01-6.08,9.33-9.12,15.96-9.13,6.45,0,11.71,3.27,15.79,9.82v-29.16h8.27ZM120.54,312.21c0-5.25-1.44-9.45-4.31-12.6-2.88-3.15-6.23-4.73-10.06-4.73-4.16,0-7.57,2.05-10.23,6.14s-4.01,9.84-4.04,17.23c0,7.99,1.23,14.07,3.68,18.24,2.46,4.17,5.84,6.26,10.14,6.26,3.9,0,7.35-1.81,10.33-5.43,2.97-3.58,4.55-8.11,4.47-12.76l.02-12.35Z"/>
  <path class="st3" d="M187.42,268.17v80.62h-7.57v-10.23c-3.75,7.91-9.4,11.87-16.95,11.87-6.27,0-11.43-2.92-15.46-8.77-4.03-5.85-6.05-13.24-6.06-22.18,0-9.14,2-16.75,6.01-22.83,4.01-6.08,9.33-9.12,15.96-9.13,6.45,0,11.72,3.27,15.79,9.82v-29.16h8.28ZM179.15,312.21c0-5.25-1.44-9.45-4.31-12.6s-6.23-4.73-10.08-4.73c-4.16,0-7.57,2.05-10.25,6.14s-4.01,9.84-4.01,17.23c0,7.99,1.23,14.07,3.68,18.24,2.46,4.17,5.84,6.26,10.14,6.26,3.9,0,7.35-1.81,10.33-5.43,2.97-3.58,4.56-8.1,4.49-12.74v-12.36Z"/>
  <path class="st2" d="M248.08,279.84v7.37c-3.83,0-6.4.49-7.69,1.48-1.3.98-2.16,2.76-2.58,5.32,3.44,4.41,5.16,9.21,5.16,14.41.08,5.23-1.95,10.27-5.64,13.99-3.76,3.9-8.8,5.84-15.14,5.84-1.24.02-2.47-.1-3.68-.36-1.21-.31-2.44-.52-3.68-.65-.96,0-2.12.52-3.47,1.56-1.3.93-2.07,2.44-2.05,4.04,0,2.36.98,3.89,2.94,4.59s6.57,1.16,13.84,1.35c6.16.2,10.71.66,13.65,1.39,2.96.74,5.58,2.45,7.45,4.85,2.03,2.5,3.04,5.57,3.04,9.2,0,11.39-9.02,17.09-27.05,17.09-8.56,0-14.8-1.43-18.72-4.29-3.92-2.86-5.88-6.68-5.89-11.46,0-5.79,2.73-9.78,8.18-11.94-3.55-2.56-5.32-5.76-5.32-9.62,0-4.6,2.49-8.12,7.48-10.56-4.64-4.17-6.96-9.42-6.96-15.76,0-5.9,1.99-10.74,5.97-14.52s8.83-5.66,14.54-5.66c3.83-.05,7.62.82,11.05,2.54.53-3.9,1.76-6.59,3.68-8.09,1.92-1.5,4.86-2.24,8.82-2.24.39,0,1.08.06,2.07.12ZM212.51,346.33c-3.91,1.89-5.87,4.63-5.87,8.22,0,3.04,1.61,5.4,4.83,7.08s7.32,2.51,12.29,2.51c4.32.05,8.62-.68,12.69-2.16,3.84-1.44,5.76-3.88,5.77-7.31.07-1.68-.53-3.32-1.67-4.55-1.14-1.18-2.69-1.93-4.67-2.25s-5.42-.56-10.33-.71c-5.87-.16-10.21-.43-13.03-.83h0ZM222.53,321.17c3.55,0,6.44-1.21,8.69-3.64s3.37-5.56,3.36-9.41c0-3.94-1.16-7.16-3.49-9.67-2.14-2.42-5.22-3.79-8.45-3.76-3.16,0-5.97,1.17-8.42,3.52-2.45,2.35-3.68,5.69-3.68,10.03,0,3.86,1.1,6.99,3.31,9.38,2.2,2.39,5.1,3.57,8.69,3.56Z"/>
  <path class="st2" d="M293.04,330.99l7.78,1.77c-1.35,5-4.26,9.43-8.3,12.66-4.09,3.34-8.92,5.01-14.5,5.01-7.33,0-13.26-2.86-17.79-8.59-4.53-5.73-6.8-13.24-6.8-22.54s2.35-17.16,7.06-23.01c4.71-5.85,10.62-8.77,17.74-8.77,7.01,0,12.65,2.69,16.92,8.07,4.27,5.38,6.45,13.43,6.55,24.14h-38.95c0,9.04,1.7,15.13,5.09,18.28s6.98,4.74,10.75,4.75c6.82,0,11.63-3.92,14.44-11.77ZM292.63,312.78c-.02-3.02-.52-6.01-1.49-8.87-.92-2.59-2.54-4.87-4.67-6.61-2.22-1.83-5.03-2.8-7.91-2.73-4.14,0-7.66,1.65-10.54,4.94s-4.5,7.72-4.85,13.28h29.46Z"/>
  <path class="st2" d="M356.53,348.79h-7.78v-38.32c0-5.51-1.08-9.39-3.25-11.63-2.03-2.19-4.89-3.41-7.88-3.36-4.26,0-7.83,1.89-10.73,5.66-2.89,3.78-4.34,8.75-4.34,14.92v32.74h-8.29v-59.65h7.78v10.95c4.35-8.39,9.99-12.58,16.92-12.58,3.99,0,7.4,1.15,10.23,3.45,2.83,2.3,4.75,4.89,5.78,7.78,1.04,2.87,1.56,8.07,1.56,15.59l-.02,34.47Z"/>
  <path class="st2" d="M408.66,330.99l7.78,1.77c-1.35,4.99-4.25,9.43-8.29,12.66-4.09,3.34-8.92,5.01-14.5,5.01-7.33,0-13.26-2.86-17.79-8.59-4.53-5.73-6.79-13.24-6.8-22.54,0-9.49,2.35-17.16,7.06-23.01s10.62-8.77,17.74-8.77c7.01,0,12.65,2.69,16.92,8.07,4.27,5.38,6.45,13.43,6.55,24.14h-38.98c0,9.04,1.7,15.13,5.09,18.28s6.98,4.73,10.77,4.73c6.83,0,11.65-3.91,14.44-11.75ZM408.25,312.78c-.02-3.02-.52-6.01-1.49-8.87-.93-2.59-2.54-4.87-4.67-6.61-2.22-1.83-5.03-2.8-7.91-2.73-4.14,0-7.65,1.65-10.54,4.94s-4.5,7.72-4.86,13.28h29.46Z"/>
</svg>