<?xml version="1.0" encoding="UTF-8"?>
<svg id="Layer_1" xmlns="http://www.w3.org/2000/svg" version="1.1" viewBox="0 0 202.71 188.36">
  <!-- Generator: Adobe Illustrator 29.8.2, SVG Export Plug-In . SVG Version: 2.1.1 Build 3)  -->
  <defs>
    <style>
      .st0 {
        stroke: #c1272d;
      }

      .st0, .st1, .st2 {
        stroke-width: 13px;
      }

      .st0, .st1, .st2, .st3 {
        fill: none;
        stroke-miterlimit: 10;
      }

      .st1 {
        stroke: #29abe2;
      }

      .st2 {
        stroke: lime;
      }

      .st3 {
        stroke: #000;
        stroke-width: 3px;
      }
    </style>
  </defs>
  <path d="M101.39,45.43v3s0,0,0,0c10.01,0,19.54,3.2,27.55,9.26,20.12,15.21,24.11,43.96,8.9,64.08-8.73,11.54-22.04,18.16-36.53,18.16-10.01,0-19.54-3.2-27.55-9.26-20.12-15.21-24.11-43.96-8.9-64.08,8.73-11.54,22.04-18.16,36.53-18.16v-3M101.39,45.43c-14.75,0-29.33,6.67-38.92,19.35-16.24,21.47-11.99,52.05,9.48,68.28,8.8,6.65,19.12,9.87,29.36,9.87,14.75,0,29.33-6.67,38.92-19.35,16.24-21.47,11.99-52.05-9.48-68.28-8.8-6.65-19.12-9.87-29.36-9.87h0Z"/>
  <path class="st1" d="M52.71,92.58c.28-9.77,3.5-19.55,9.85-27.94,8.06-10.66,19.66-17.08,31.92-18.85.26-.04.52-.07.78-.11.39-.05.78-.1,1.17-.14,11.84-1.23,24.16,1.86,34.41,9.61,21.47,16.24,25.72,46.81,9.48,68.28"/>
  <path class="st2" d="M96.43,45.55c11.84-1.23,24.16,1.86,34.41,9.61,6.68,5.05,11.69,11.48,14.93,18.6"/>
  <path class="st0" d="M52.71,92.58c.28-9.77,3.5-19.55,9.85-27.94,8.06-10.66,19.66-17.08,31.92-18.85"/>
  <g>
    <polyline class="st3" points="59.21 92.17 24.7 90.64 25.21 79.24"/>
    <polygon points="31.85 81.5 25.64 69.56 18.4 80.91 31.85 81.5"/>
  </g>
  <g>
    <polyline class="st3" points="96.33 52.12 92.15 17.8 104.64 16.28"/>
    <polygon points="103.5 23.2 114.25 15.11 101.87 9.84 103.5 23.2"/>
  </g>
  <g>
    <polyline class="st3" points="140.08 77.14 171.81 63.26 176.2 73.28"/>
    <polygon points="169.24 74.17 180.08 82.16 181.57 68.78 169.24 74.17"/>
  </g>
</svg>